# xmcd
# 
# Track frame offsets:
#     150
#     13800
#     29180
#     63650
#     88752
#     99327
#     136435
#     158120
#     172645
#     189680
# 
# Disc length: 3006
# 
# Revision: 1
# Processed by: cddbd v1.5.2PL0 Copyright (c) Steve Scherf et al.
# Submitted via: fre:ac v1.0.31
# 
DISCID=840bbc0a
DTITLE=何訓田 - 波羅密多 (XRCD)
DYEAR=2006
DGENRE=
TTITLE0=雲鐘〈序曲〉
TTITLE1=波羅密多
TTITLE2=阿耨多羅三藐三菩提
TTITLE3=琵琶行
TTITLE4=群僧
TTITLE5=般若心經
TTITLE6=塵鼓
TTITLE7=白蛇舞
TTITLE8=春歌
TTITLE9=千江月
EXTD=
EXTT0=
EXTT1=
EXTT2=
EXTT3=
EXTT4=
EXTT5=
EXTT6=
EXTT7=
EXTT8=
EXTT9=
PLAYORDER=
